<?xml version="1.0" ?><svg id="Layer_10" style="enable-background:new 0 0 512 512;" version="1.1" viewBox="0 0 512 512" xml:space="preserve" xmlns="http://www.w3.org/2000/svg" xmlns:xlink="http://www.w3.org/1999/xlink"><style type="text/css">
	.st0{fill:#C1272D;}
	.st1{fill:#ED1C24;}
	.st2{fill:#FF301A;}
	.st3{fill:#FF4931;}
	.st4{fill:#F97141;}
	.st5{fill:none;stroke:#FFFFFF;stroke-width:18;stroke-linecap:round;stroke-miterlimit:10;}
</style><g><circle class="st0" cx="256" cy="263.5" r="248.5"/><circle class="st1" cx="256" cy="248.5" r="248.5"/><path class="st2" d="M162.2,145.5c0,0-50.6-96.1,24.6-107.6s170.5-2.2,182.1,22.4s3.8,90.3,3.8,90.3s56.9-47,80,0   s34.7,142.3,12.3,177.7c-22.4,35.4-75.8,44.4-75.8,44.4l-44.8-29.9l23.8,93.2c0,0-65,46.2-132.2,29.6s-136.4-33.2-105-77.3   s0-28.2,0-28.2s-66.2,48.4-80.6-27.5S23.5,145.6,75.5,130S162.2,145.5,162.2,145.5z"/><g><path class="st3" d="M453,119.3c-8.6-13.1-25-18.7-40-14.1l-19.1,5.9l6-19.2c4.6-14.9-1-31.3-14-39.9c-78.4-52-181-52-259.5-0.2    c-13.1,8.6-18.7,25-14.1,39.9l5.9,19.1l-19.1-5.9c-14.9-4.6-31.3,1-39.9,14.1c-51.8,78.4-51.7,181,0.1,259.4    c8.6,13,25,18.7,39.9,14l18.7-5.8l-5.8,18.7c-4.6,14.9,1,31.3,14,39.9c78.3,51.8,180.8,51.9,259.2,0.2c13.1-8.6,18.7-25,14.1-39.9    l-5.8-18.7l18.8,5.8c14.9,4.6,31.2-1,39.9-14C504.4,300.3,504.6,197.8,453,119.3z M443.5,340.5c-20,26.6-72.5,24.8-166.1-69.8    c27.8,31.1,73.3,89.1,74,137.4c1,69.6-158.7,49.2-187.2,27.8c-26.6-20-24.8-72.5,69.8-166.1c-31.1,27.8-89.1,73.3-137.4,74    c-69.6,1-49.2-158.7-27.8-187.2c20-26.6,72.5-24.8,166.1,69.8c-27.8-31.1-73.3-89.1-74-137.4c-1-69.6,158.7-49.2,187.2-27.8    c26.6,20,24.8,72.5-69.8,166.1c31.1-27.8,89.1-73.3,137.4-74C485.3,152.2,464.9,311.9,443.5,340.5z"/><path class="st3" d="M256,248.5c0,0,0.1,0.1,0.1,0.1c0,0,0.1-0.1,0.1-0.1c0,0-0.1-0.1-0.1-0.1C256.1,248.4,256,248.5,256,248.5z"/></g><path class="st4" d="M344.9,239.5c-8.6-17.2,27.6-31.5,27.6-31.5l-80,24.7c-9.9,3.1-18.6-7.3-14-16.5l33.4-66   c0,0-22.9,11.4-35.3,12.4c-12.4,1-11.4-23.8-11.4-23.8s-1.9,14.3-19.1,22.9c-17.2,8.6-31.5-27.6-31.5-27.6l24.7,80   c3.1,9.9-7.3,18.6-16.5,14l-66-33.4c0,0,11.4,22.9,12.4,35.3c1,12.4-23.8,11.4-23.8,11.4s14.3,1.9,22.9,19.1   c8.6,17.2-27.6,31.5-27.6,31.5l80-24.7c9.9-3.1,18.6,7.3,14,16.5l-33.4,66c0,0,22.9-11.4,35.3-12.4c12.4-1,11.4,23.8,11.4,23.8   s1.9-14.3,19.1-22.9c17.2-8.6,31.5,27.6,31.5,27.6l-24.7-80c-3.1-9.9,7.3-18.6,16.5-14l66,33.4c0,0-11.4-22.9-12.4-35.3   s23.8-11.4,23.8-11.4S353.5,256.6,344.9,239.5z"/><path class="st4" d="M270.1,119.5c0,5.3-3,14.5-6.7,14.5c-3.7,0-6.7-9.2-6.7-14.5s3-9.6,6.7-9.6   C267.1,109.9,270.1,114.2,270.1,119.5z"/><path class="st4" d="M325.1,133.3c-3.7,3.8-12.3,8.3-14.9,5.7c-2.7-2.6,1.6-11.3,5.3-15.1c3.7-3.8,8.8-4.8,11.5-2.2   C329.6,124.3,328.7,129.5,325.1,133.3z"/><path class="st4" d="M389.5,270.1c-5.1-1.5-13.1-7-12-10.6c1.1-3.6,10.8-3.8,15.8-2.3c5.1,1.5,8.3,5.6,7.2,9.2   S394.5,271.6,389.5,270.1z"/><path class="st4" d="M392.2,210.6c-5.3,0.5-14.7-1.6-15.1-5.3c-0.4-3.7,8.5-7.6,13.8-8.1c5.3-0.5,9.8,2.1,10.2,5.8   C401.4,206.6,397.4,210.1,392.2,210.6z"/><path class="st4" d="M370.2,322.2c-4.1-3.4-9.2-11.6-6.9-14.4c2.4-2.9,11.4,0.7,15.5,4.1s5.4,8.4,3,11.3   C379.4,326,374.2,325.6,370.2,322.2z"/><path class="st4" d="M118.8,228.8c5.1,1.5,13.1,7,12,10.6c-1.1,3.6-10.8,3.8-15.8,2.3c-5.1-1.5-8.3-5.6-7.2-9.2   S113.7,227.3,118.8,228.8z"/><path class="st4" d="M116.1,288.3c5.3-0.5,14.7,1.6,15.1,5.3s-8.5,7.6-13.8,8.1c-5.3,0.5-9.8-2.1-10.2-5.8S110.8,288.8,116.1,288.3   z"/><path class="st4" d="M138.1,176.7c4.1,3.4,9.2,11.6,6.9,14.4c-2.4,2.9-11.4-0.7-15.5-4.1c-4.1-3.4-5.4-8.4-3-11.3   C128.8,172.9,134,173.3,138.1,176.7z"/><path class="st4" d="M212.5,114.4c2.8,4.5,5.1,13.9,1.9,15.9s-10.6-4.3-13.3-8.8c-2.8-4.5-2.5-9.7,0.7-11.7   C204.9,107.8,209.7,109.9,212.5,114.4z"/><path class="st4" d="M249.7,383.2c0-5.3,3-14.5,6.7-14.5c3.7,0,6.7,9.2,6.7,14.5s-3,9.6-6.7,9.6   C252.7,392.8,249.7,388.5,249.7,383.2z"/><path class="st4" d="M194.7,369.4c3.7-3.8,12.3-8.3,14.9-5.7c2.7,2.6-1.6,11.3-5.3,15.1c-3.7,3.8-8.8,4.8-11.5,2.2   C190.2,378.4,191.1,373.2,194.7,369.4z"/><path class="st4" d="M307.3,388.3c-2.8-4.5-5.1-13.9-1.9-15.9c3.2-2,10.6,4.3,13.3,8.8c2.8,4.5,2.5,9.7-0.7,11.7   C314.9,394.9,310.1,392.8,307.3,388.3z"/><path class="st5" d="M349.8,105c0,0,72.2,57.2,73.9,114.4"/><path class="st5" d="M320.7,86.2c0,0-24.2-15.9-40.1-15.9"/></g></svg>